<svg xmlns="http://www.w3.org/2000/svg" viewBox="0 0 100 125" x="0px" y="0px"><title>Noun_Project_100Icon_1px_grid_travel_exp</title><g data-name="Layer 2"><path d="M51.34082,47.3335A12.24463,12.24463,0,1,0,39.09668,35.08887,12.2586,12.2586,0,0,0,51.34082,47.3335Zm0-22.48926A10.24463,10.24463,0,1,1,41.09668,35.08887,10.25631,10.25631,0,0,1,51.34082,24.84424ZM6.333,66.60742a1.00215,1.00215,0,0,0,.54883.98633l34.7959,17.38818a1.00156,1.00156,0,0,0,.72266.06689l50.5459-14.49023a1,1,0,0,0,.17188-1.856L64.50122,54.40234c4.59845-6.46344,7.01636-13.07147,7.01636-19.31348a20.17627,20.17627,0,1,0-40.35254,0c0,7.10138,2.8623,14.44385,8.28827,21.36072L7.05371,65.73779A1.001,1.001,0,0,0,6.333,66.60742ZM42.22363,83.019l-2.92-1.45923a2.92565,2.92565,0,0,1,.91028-2.29956,7.13851,7.13851,0,0,1,2.87793-1.31689l1.0918-.32861a11.53306,11.53306,0,0,0,3.18457-1.58545,4.76337,4.76337,0,0,1,2.24707-.99316c2.05664-.22021,7.64648.00293,7.78027.00537,2.50293-.09766,5.47852.3667,5.94043,1.20264.10858.19781-.00787.50488-.15045.76569ZM78.75769,72.54565c-.20715.00653-.40839.01147-.58875.01147-2.03711,0-2.41016-.375-2.41406-.36621a2.07221,2.07221,0,0,1,.6123-.92187c.02637-.02441.05176-.05029.07617-.07715l2.6875-3.0625c1.84534-2.10284,3.13885-2.38257,3.519-2.422l7.27692,3.63635ZM51.34082,16.9126A18.19723,18.19723,0,0,1,69.51758,35.08887c0,13.156-11.35992,24.36847-16.40112,28.696a.97865.97865,0,0,0-.42419.36047c-.56543.47607-1.03613.85474-1.368,1.11438a57.14036,57.14036,0,0,1-9.22614-8.74969.96715.96715,0,0,0-.26147-.3089c-4.441-5.37-8.67157-12.6947-8.67157-21.1123A18.1964,18.1964,0,0,1,51.34082,16.9126Zm8.6344,43.0506c2.53253.19281,2.76239.37689,3.15662.69647.10254.08252.21191.17139.34375.26758a3.62187,3.62187,0,0,0,.80762.41846c-.47266.16748-.96.35059-1.46289.53906a21.91177,21.91177,0,0,1-6.29492,1.69043l-.15851.00647C57.46826,62.56,58.69812,61.349,59.97522,59.9632ZM40.99609,58.335a55.94422,55.94422,0,0,0,9.78223,8.99658.999.999,0,0,0,1.14844-.0166c.07837-.05658.85968-.62756,2.063-1.63483l2.61768-.10687a23.34963,23.34963,0,0,0,6.916-1.81592c.85645-.32129,1.665-.625,2.40137-.853.5459-.16895,1.68164-.52,1.69629-1.521.01563-.98779-.99414-1.335-1.97168-1.6709a5.91709,5.91709,0,0,1-.99121-.39844c-.10254-.07471-.18848-.14453-.26758-.209a4.49232,4.49232,0,0,0-2.776-.99323c.026-.03058.05176-.05908.07776-.08978.559-.66,1.08649-1.32336,1.59937-1.988l16.97675,8.48346a11.35852,11.35852,0,0,0-2.64154,2.2926l-2.6543,3.02539c-.36621.34717-1.64746,1.69678-1.07617,3.08594a1.97948,1.97948,0,0,0,.65387.83038l-9.17712,2.63086a2.362,2.362,0,0,0-.28729-1.10577c-1.30469-2.36133-6.69824-2.27832-7.68848-2.23389-.23437-.00977-5.792-.23291-7.99512.00488a6.64378,6.64378,0,0,0-3.13672,1.3125,9.5213,9.5213,0,0,1-2.666,1.34131l-1.0791.3252a8.978,8.978,0,0,0-3.416,1.56934,4.30468,4.30468,0,0,0-1.71063,3.00928l-17.63745-8.8139a10.0042,10.0042,0,0,1,2.16449-1.34821,3.93478,3.93478,0,0,1,1.47559-.07178c.582.0293,1.44922.07324,2.90332.09814,3.35254.05518,9.96484-.09473,11.11816-.12256a3.2629,3.2629,0,0,0,4.21289-1.85547c.13184-.36279.34863-.47363.8252-.68994,1.4834-.67236,2.21973-1.66162,1.31348-4.51025a8.55553,8.55553,0,0,0-4.19427-4.79614l1.25482-.35974C40.88666,58.20184,40.93909,58.26886,40.99609,58.335Zm-4.46973,1.03442c.9209.26727,4.35962,1.45642,5.33691,4.52856.5498,1.72705.35254,1.81689-.2334,2.08252A3.10975,3.10975,0,0,0,39.752,67.80518c-.37109,1.019-1.51074.71289-1.8457.59766a.81835.81835,0,0,0-.36523-.05908c-.0752.002-7.58594.1875-11.208.126-1.41992-.02393-2.26758-.06689-2.83594-.09521a5.76605,5.76605,0,0,0-2.03516.12158A13.67441,13.67441,0,0,0,17.764,70.7959l-7.69073-3.84326Z"/></g><text x="0" y="115" fill="#414344" font-size="5px" font-weight="bold" font-family="'Helvetica Neue', Helvetica, Arial-Unicode, Arial, Sans-serif">Created by Path Lord</text><text x="0" y="120" fill="#000000" font-size="5px" font-weight="bold" font-family="'Helvetica Neue', Helvetica, Arial-Unicode, Arial, Sans-serif">from the Noun Project</text></svg>